<?xml version="1.0" encoding="utf-8"?>
<!-- Generator: Adobe Illustrator 25.2.1, SVG Export Plug-In . SVG Version: 6.00 Build 0)  -->
<svg version="1.1" id="Layer_1" xmlns="http://www.w3.org/2000/svg" xmlns:xlink="http://www.w3.org/1999/xlink" x="0px" y="0px"
	 viewBox="0 0 595.28 841.89" style="enable-background:new 0 0 595.28 841.89;" xml:space="preserve">
<style type="text/css">
	.st0{display:none;fill-rule:evenodd;clip-rule:evenodd;fill:#EF6262;}
	.st1{fill-rule:evenodd;clip-rule:evenodd;fill:#FFFFFF;}
	.st2{fill:#FFFFFF;}
	.st3{font-family:'KeepCalm-Medium';}
	.st4{font-size:52.3672px;}
	.st5{letter-spacing:6;}
</style>
<rect x="7.62" y="281.63" class="st0" width="557.62" height="225.7"/>
<g>
	<path class="st1" d="M213.96,415.49c0,0,1.34,10.26-5.37,15.27c-16.18,12.07-45.11,36.49-66.67,25.81
		c-17.98-8.9-47.34-74.44-56.43-93.83c-1.35-2.49-5.35-8.72,0.73-8.98c4.4-0.18,94.5,7.14,94.5,7.14s2.44-0.09,3.54,2.6l15.27,44.82
		c0,0-0.68,1.17-2.01,0.27c-1.5-3.05-14.53-42.29-15.88-43.81l-77.79-2.26c0,0-5.5-0.49-3.54,4.03
		c7.8,18.04,32.54,79.04,51.02,86.67c7.04,2.91,19.74-0.34,23.6-7.17c0,0,3.54-4.89,3.72-12.58L213.96,415.49z"/>
	<path class="st1" d="M120.21,383.15H70.25c-2.36,0-4.28-1.92-4.28-4.28l0,0c0-2.36,1.92-4.28,4.28-4.28h49.96
		c2.36,0,4.28,1.92,4.28,4.28l0,0C124.49,381.23,122.57,383.15,120.21,383.15z"/>
	<path class="st1" d="M129.08,401.67H79.12c-2.36,0-4.28-1.92-4.28-4.28l0,0c0-2.36,1.92-4.28,4.28-4.28h49.96
		c2.36,0,4.28,1.92,4.28,4.28l0,0C133.36,399.75,131.44,401.67,129.08,401.67z"/>
	<path class="st1" d="M138.73,420.19H88.77c-2.36,0-4.28-1.92-4.28-4.28l0,0c0-2.36,1.92-4.28,4.28-4.28h49.96
		c2.36,0,4.28,1.92,4.28,4.28l0,0C143.01,418.27,141.09,420.19,138.73,420.19z"/>
	<text transform="matrix(1 0 0 1 224.1289 396.598)"><tspan x="0" y="0" class="st2 st3 st4 st5">ONLİNE</tspan><tspan x="0" y="55" class="st2 st3 st4 st5">FATURA</tspan></text>
</g>
</svg>
