<svg id="Layer_1" data-name="Layer 1" xmlns="http://www.w3.org/2000/svg" viewBox="0 0 423.61 124.33"><defs><style>.cls-1,.cls-2,.cls-3{fill:#fff;}.cls-1{fill-rule:evenodd;}.cls-3{font-size:52.37px;font-family:KeepCalm-Medium, Keep Calm;font-weight:500;}.cls-3,.cls-6{letter-spacing:0.12em;}.cls-4{letter-spacing:0.02em;}.cls-5{letter-spacing:-0.01em;}</style></defs><path class="cls-1" d="M214,415.49s1.34,10.26-5.38,15.27c-16.18,12.06-45.1,36.49-66.67,25.81-18-8.9-47.34-74.44-56.43-93.83-1.35-2.5-5.35-8.73.73-9,4.4-.18,94.5,7.14,94.5,7.14a3.88,3.88,0,0,1,3.54,2.6l15.27,44.82a1.32,1.32,0,0,1-2,.27c-1.49-3-14.53-42.28-15.87-43.81l-77.8-2.26s-5.49-.49-3.54,4c7.8,18,32.54,79,51,86.67,7,2.91,19.74-.34,23.6-7.16a24,24,0,0,0,3.72-12.58Z" transform="translate(-65.97 -343.39)"/><rect class="cls-2" y="31.19" width="58.52" height="8.56" rx="4.28"/><rect class="cls-2" x="8.87" y="49.71" width="58.52" height="8.56" rx="4.28"/><rect class="cls-2" x="18.52" y="68.24" width="58.52" height="8.56" rx="4.28"/><text class="cls-3" transform="translate(158.16 53.2)">ONLİNE<tspan class="cls-4"><tspan x="0" y="55">F</tspan><tspan class="cls-5" x="33.93" y="55">A</tspan><tspan class="cls-6" x="79.86" y="55">TURA</tspan></tspan></text></svg>