<?xml version="1.0" encoding="utf-8"?>
<!-- Generator: Adobe Illustrator 25.2.1, SVG Export Plug-In . SVG Version: 6.00 Build 0)  -->
<svg version="1.1" id="Layer_1" xmlns="http://www.w3.org/2000/svg" xmlns:xlink="http://www.w3.org/1999/xlink" x="0px" y="0px"
	 viewBox="0 0 595.28 841.89" style="enable-background:new 0 0 595.28 841.89;" xml:space="preserve">
<style type="text/css">
	.st0{display:none;fill-rule:evenodd;clip-rule:evenodd;fill:#FF6666;}
	.st1{display:none;fill:none;}
	.st2{fill-rule:evenodd;clip-rule:evenodd;fill:#FFFFFF;}
	.st3{fill:#FFFFFF;}
	.st4{font-family:'KeepCalm-Medium';}
	.st5{font-size:51.4026px;}
	.st6{letter-spacing:6;}
</style>
<rect x="-47.53" y="285.72" class="st0" width="666.89" height="236.94"/>
<path class="st1" d="M161.93,433.17l35.14-17.91c0,0,0.85,10.72-5.79,15.23c-6.64,4.51-35.57,24-35.57,24s-14.23,9.38-33.83,0
	c-13.49-9.7-28.98-42.04-28.98-42.04"/>
<path class="st2" d="M196.99,415.49c0,0,1.34,10.26-5.37,15.27c-16.18,12.07-45.11,36.49-66.67,25.81
	c-17.98-8.9-47.34-74.44-56.43-93.83c-1.35-2.49-5.35-8.72,0.73-8.98c4.4-0.18,94.5,7.14,94.5,7.14s2.44-0.09,3.54,2.6l15.27,44.82
	c0,0-0.68,1.17-2.01,0.27c-1.5-3.05-14.53-42.29-15.88-43.81l-77.79-2.26c0,0-5.5-0.49-3.54,4.03c7.8,18.04,32.54,79.04,51.02,86.67
	c7.04,2.91,19.74-0.34,23.6-7.17c0,0,3.54-4.89,3.72-12.58L196.99,415.49z"/>
<text transform="matrix(1 0 0 1 207.6438 395.8242)"><tspan x="0" y="0" class="st3 st4 st5 st6">ONLINE</tspan><tspan x="0" y="54" class="st3 st4 st5 st6">FATURA</tspan></text>
<path class="st3" d="M121.76,420.19H71.8c-2.36,0-4.28-1.92-4.28-4.28l0,0c0-2.36,1.92-4.28,4.28-4.28h49.96
	c2.36,0,4.28,1.92,4.28,4.28l0,0C126.04,418.27,124.12,420.19,121.76,420.19z"/>
<path class="st3" d="M112.11,401.67H62.15c-2.36,0-4.28-1.92-4.28-4.28l0,0c0-2.36,1.92-4.28,4.28-4.28h49.96
	c2.36,0,4.28,1.92,4.28,4.28l0,0C116.39,399.75,114.47,401.67,112.11,401.67z"/>
<path class="st3" d="M103.24,383.15H53.28c-2.36,0-4.28-1.92-4.28-4.28l0,0c0-2.36,1.92-4.28,4.28-4.28h49.96
	c2.36,0,4.28,1.92,4.28,4.28l0,0C107.52,381.23,105.6,383.15,103.24,383.15z"/>
</svg>
